<svg width="100" height="100" viewBox="0 0 100 100" fill="none" xmlns="http://www.w3.org/2000/svg">
<path d="M95.3326 87.4862C95.3696 94.352 89.8326 99.9426 82.971 99.9797C82.4609 99.9838 81.9467 99.955 81.4407 99.8933C75.0728 98.9512 70.4079 93.41 70.5642 86.9761V13.0027C70.412 6.56053 75.0892 1.01931 81.4613 0.08549C88.2777 -0.712577 94.4523 4.16633 95.2503 10.9828C95.3079 11.4847 95.3367 11.9866 95.3326 12.4926V87.4862Z" fill="#F9AB00"/>
<path d="M17.3864 75.227C24.2274 75.227 29.7727 80.7723 29.7727 87.6135C29.7727 94.4547 24.2274 100 17.3864 100C10.5453 100 5 94.4547 5 87.6135C5 80.7723 10.5453 75.227 17.3864 75.227ZM49.9751 37.6891C43.1011 38.0675 37.7698 43.8309 37.9302 50.7132V83.9811C37.9302 93.0107 41.904 98.4902 47.7249 99.6586C54.4426 101.02 60.9875 96.6802 62.3491 89.9624C62.5178 89.1397 62.6001 88.3046 62.596 87.4654V50.1373C62.6083 43.2714 57.0548 37.6973 50.189 37.6849C50.1191 37.6849 50.0451 37.6849 49.9751 37.6891Z" fill="#E37400"/>
</svg>
