<svg width="100" height="100" viewBox="0 0 100 100" fill="none" xmlns="http://www.w3.org/2000/svg">
<path d="M80.8222 64.8213C81.8722 65.8713 81.1278 67.6658 79.6444 67.6658H52C51.0778 67.6658 50.3333 68.4102 50.3333 69.3325V96.9769C50.3333 98.4602 48.5389 99.2047 47.4889 98.1547L17.65 68.3158C17.2333 67.8991 17 67.3325 17 66.7436V35.9991C17 35.0769 17.7444 34.3325 18.6667 34.3325H50.3333L80.8222 64.8213Z" fill="white"/>
<path d="M50.3334 34.3325L19.8445 3.84359C18.7945 2.79359 19.5389 0.999146 21.0222 0.999146H82C82.9222 0.999146 83.6667 1.74359 83.6667 2.66581V32.6658C83.6667 33.588 82.9222 34.3325 82 34.3325H50.3334Z" fill="white"/>
</svg>
