<svg width="100" height="100" viewBox="0 0 100 100" fill="none" xmlns="http://www.w3.org/2000/svg">
<g clip-path="url(#clip0_790_4412)">
<path d="M63.4531 32.1612H66.5046L75.1981 23.4678L75.6256 19.7791C59.4501 5.50238 34.7571 7.04071 20.4804 23.2163C16.5109 27.7097 13.6312 33.0541 12.0635 38.8385C13.0318 38.4403 14.1049 38.3774 15.1151 38.6541L32.4978 35.787C32.4978 35.787 33.3822 34.3241 33.8391 34.4163C41.5727 25.9241 54.5878 24.9348 63.516 32.1612H63.4531Z" fill="#EA4335"/>
<path d="M87.5801 38.8385C85.5807 31.4821 81.4813 24.8677 75.7765 19.8084L63.5788 32.0061C68.7303 36.2145 71.6645 42.5565 71.5387 49.2086V51.3757C77.537 51.3757 82.3951 56.238 82.3951 62.232C82.3951 68.2303 77.5328 73.0884 71.5387 73.0884H49.8219L47.6548 75.2848V88.3082L49.8219 90.4753H71.5387C83.9879 90.5717 95.0328 82.5028 98.7299 70.6153C102.418 58.7236 97.8915 45.8134 87.5801 38.8385Z" fill="#4285F4"/>
<path d="M28.0756 90.3538H49.7925V72.971H28.0756C26.5289 72.971 24.999 72.6399 23.5906 71.9944L20.5391 72.9375L11.7869 81.631L11.024 84.6825C15.9324 88.3879 21.9223 90.3789 28.0756 90.3538Z" fill="#34A853"/>
<path d="M28.0756 33.9594C16.0121 34.0307 5.32759 41.7559 1.47966 53.1865C-2.36827 64.6171 1.46708 77.2339 11.0282 84.5861L23.6241 71.9902C18.1582 69.5213 15.7312 63.0913 18.2001 57.6254C20.669 52.1595 27.099 49.7326 32.5649 52.2015C34.9709 53.2913 36.899 55.2194 37.9889 57.6254L50.5848 45.0296C45.2237 38.0253 36.8949 33.9301 28.0756 33.9594Z" fill="#FBBC05"/>
</g>
<defs>
<clipPath id="clip0_790_4412">
<rect width="100" height="80.4753" fill="white" transform="translate(0 10)"/>
</clipPath>
</defs>
</svg>
