<svg width="100" height="100" viewBox="0 0 100 100" fill="none" xmlns="http://www.w3.org/2000/svg">
<path d="M9.375 48.0635C9.375 33.8676 17.0708 20.7551 29.5583 13.6551C35.7124 10.1668 42.6656 8.33313 49.7396 8.33313C56.8136 8.33313 63.7668 10.1668 69.9208 13.6551C82.4083 20.7551 90.1042 33.8676 90.1042 48.0635C90.1042 70.0051 72.0333 87.7926 49.7417 87.7926C27.45 87.7926 9.375 70.001 9.375 48.0635Z" fill="#FF9D0B"/>
<path d="M49.7417 83.6929C69.7293 83.6929 85.9376 67.7388 85.9376 48.0638C85.9376 28.3888 69.7293 12.4388 49.7417 12.4388C29.7501 12.4388 13.5417 28.3888 13.5417 48.0638C13.5417 67.7388 29.7501 83.6888 49.7417 83.6888V83.6929Z" fill="#FFD21E"/>
<path d="M49.4794 62.9723C59.7169 62.9723 63.021 53.9889 63.021 49.3764C63.021 46.9764 61.3835 47.7348 58.7585 49.0056C56.3335 50.1848 53.071 51.8181 49.4919 51.8181C42.0002 51.8181 35.9502 44.7639 35.9502 49.3764C35.9502 53.9889 39.2419 62.9723 49.4919 62.9723H49.4794Z" fill="#FF323D"/>
<path d="M61.5001 38.3773C62.8334 38.8273 63.3543 41.5148 64.6959 40.8148C66.5584 39.844 67.6418 37.8648 67.4418 35.7982C67.338 34.7823 66.9343 33.8202 66.2821 33.0345C65.6299 32.2487 64.7587 31.6748 63.7793 31.3857C62.7962 31.0882 61.7475 31.0851 60.7626 31.3769C59.7778 31.6686 58.9 32.2424 58.2376 33.0273C56.8959 34.6273 56.6668 36.8607 57.6543 38.694C58.2918 39.8732 60.3126 37.9565 61.5084 38.3648L61.5001 38.3773ZM36.9709 38.3773C35.6376 38.8273 35.1043 41.5148 33.7709 40.8148C32.8658 40.3473 32.1211 39.6199 31.6326 38.726C31.144 37.832 30.9339 36.8124 31.0293 35.7982C31.2293 33.7357 32.6751 31.994 34.6876 31.3857C35.6707 31.0882 36.7194 31.0851 37.7042 31.3769C38.689 31.6686 39.5668 32.2424 40.2293 33.0273C41.5709 34.6273 41.8001 36.8607 40.8126 38.694C40.1793 39.8732 38.1459 37.9565 36.9584 38.3648L36.9709 38.3773ZM41.6376 60.6273C42.1928 59.5218 42.9694 58.5423 43.9192 57.7495C44.8689 56.9568 45.9715 56.3677 47.1584 56.019C47.4501 55.9357 47.7584 56.269 48.0709 56.7315L48.8709 58.0065C49.1584 58.4232 49.4501 58.7357 49.7418 58.7357C50.0501 58.7357 50.3668 58.4273 50.6709 58.019L51.5251 56.7607C51.8584 56.3023 52.1793 55.9773 52.5001 56.0732C54.7376 56.7732 56.6084 58.3065 57.7084 60.3482C61.5918 57.3315 63.0209 52.4107 63.0209 49.3773C63.0209 47.2607 61.7459 47.6023 59.6459 48.5857L57.0793 49.819C54.9126 50.819 52.2959 51.819 49.4793 51.819C46.6626 51.819 44.0543 50.819 41.8834 49.819L39.4293 48.6398C37.2626 47.6065 35.9376 47.2148 35.9376 49.3773C35.9376 52.3065 37.2709 57.0065 40.8834 60.044L41.6334 60.6273H41.6376Z" fill="#3A3B45"/>
<path d="M74.2169 43.1941C74.6583 43.198 75.0961 43.1148 75.5053 42.9493C75.9145 42.7838 76.287 42.5393 76.6016 42.2297C76.9163 41.9201 77.1668 41.5515 77.3388 41.1451C77.5109 40.7386 77.6011 40.3022 77.6044 39.8608C77.6044 38.0233 76.0877 36.5275 74.2169 36.5275C73.7759 36.5242 73.3385 36.6078 72.9298 36.7735C72.5211 36.9393 72.149 37.1839 71.8349 37.4934C71.5207 37.8029 71.2705 38.1713 71.0987 38.5775C70.9269 38.9837 70.8368 39.4198 70.8336 39.8608C70.8336 41.7025 72.3502 43.1941 74.2169 43.1941ZM25.7836 43.1941C26.2246 43.1974 26.6619 43.1138 27.0707 42.9481C27.4794 42.7824 27.8514 42.5377 28.1656 42.2282C28.4798 41.9187 28.7299 41.5503 28.9017 41.1441C29.0735 40.7379 29.1636 40.3018 29.1669 39.8608C29.1669 38.0233 27.6502 36.5275 25.7836 36.5275C25.3422 36.5236 24.9044 36.6068 24.4952 36.7723C24.086 36.9378 23.7134 37.1823 23.3988 37.4919C23.0842 37.8015 22.8337 38.1701 22.6616 38.5765C22.4896 38.983 22.3993 39.4194 22.3961 39.8608C22.3961 41.7025 23.9127 43.1941 25.7836 43.1941ZM18.8127 54.4733C17.1252 54.4733 15.6252 55.1483 14.5752 56.39C13.6796 57.4748 13.189 58.8373 13.1877 60.2441C12.5313 60.0497 11.8514 59.9459 11.1669 59.9358C9.55439 59.9358 8.09606 60.5441 7.06273 61.64C6.14464 62.5723 5.56408 63.7845 5.41312 65.0843C5.26216 66.384 5.54944 67.697 6.22939 68.815C5.31134 69.5513 4.65764 70.5662 4.36689 71.7066C4.11689 72.6316 3.86689 74.5816 5.20023 76.565C4.69994 77.3183 4.40157 78.1876 4.33371 79.0894C4.26586 79.9911 4.4308 80.8952 4.81273 81.715C5.80439 83.9358 8.18773 85.7066 12.6877 87.5691L13.6877 87.9691C16.8877 89.2191 19.8252 90.0191 19.8461 90.0275C23.5544 91.04 27.3794 91.59 31.2294 91.6691C37.3336 91.6691 41.7002 89.8233 44.2086 86.1941C48.0836 80.6025 47.7169 75.465 43.0669 70.515L42.4377 69.8733C39.5544 67.0233 37.6252 62.8316 37.2294 61.9066C36.4169 59.1775 34.2711 56.1441 30.7211 56.1441C28.8044 56.1733 27.0169 57.115 25.9294 58.665C24.8877 57.3733 23.8669 56.3608 22.9502 55.7733C21.7219 54.9571 20.2871 54.5063 18.8127 54.4733ZM81.1877 54.4733C82.8752 54.4733 84.3836 55.1483 85.4252 56.39C86.3252 57.4816 86.8127 58.84 86.8127 60.2441C87.4711 60.0483 88.1544 59.9483 88.8419 59.9358C90.4586 59.9358 91.9169 60.5441 92.9461 61.64C93.8642 62.5723 94.4447 63.7845 94.5957 65.0843C94.7466 66.384 94.4594 67.697 93.7794 68.815C94.6961 69.5566 95.3502 70.5733 95.6336 71.7066C95.8836 72.6316 96.1336 74.5816 94.8002 76.565C95.8169 78.1066 95.9627 80.0483 95.1877 81.715C94.1961 83.9358 91.8127 85.7066 87.3169 87.5691L86.3211 87.9691C83.1127 89.2191 80.1752 90.0191 80.1544 90.0275C76.4461 91.04 72.6211 91.59 68.7711 91.6691C62.6669 91.6691 58.3002 89.8233 55.7919 86.1941C51.9169 80.6025 52.2836 75.465 56.9336 70.515L57.5627 69.8733C60.4586 67.0233 62.3836 62.8316 62.7794 61.9066C63.5919 59.1775 65.7294 56.1441 69.2794 56.1441C71.1961 56.1733 72.9836 57.115 74.0711 58.665C75.1127 57.3733 76.1336 56.3608 77.0627 55.7733C78.0794 55.0983 79.2419 54.6691 80.4544 54.5233L81.1877 54.4733Z" fill="#FF9D0B"/>
<path d="M40.7709 83.8841C43.6376 79.7424 43.4292 76.6341 39.5001 72.7716C35.5626 68.9049 33.2709 63.2382 33.2709 63.2382C33.2709 63.2382 32.4168 59.9549 30.4709 60.2632C28.5209 60.5716 27.0959 65.4716 31.1793 68.4757C35.2501 71.4799 30.3668 73.5174 28.7917 70.7007C27.2292 67.8799 22.9376 60.6341 20.7084 59.2382C18.4918 57.8549 16.9293 58.6216 17.4501 61.4924C17.9709 64.3549 27.2709 71.2841 26.3668 72.7716C25.4584 74.2799 22.2709 71.0216 22.2709 71.0216C22.2709 71.0216 12.3043 62.0841 10.1251 64.4174C7.95842 66.7424 11.7834 68.6924 17.2084 71.9299C22.6584 75.1716 23.0834 76.0341 22.3126 77.2632C21.5334 78.4924 9.52092 68.5132 8.39592 72.7507C7.27092 76.9632 20.6584 78.1841 19.8334 81.1091C19.0001 84.0257 10.3959 75.5924 8.64592 78.8716C6.87509 82.1632 20.7834 86.0299 20.8959 86.0591C25.3751 87.2091 36.7834 89.6382 40.7709 83.8841ZM59.2376 83.8841C56.3751 79.7424 56.5709 76.6341 60.5084 72.7716C64.4376 68.9049 66.7292 63.2382 66.7292 63.2382C66.7292 63.2382 67.5834 59.9549 69.5418 60.2632C71.4793 60.5716 72.9043 65.4716 68.8334 68.4757C64.7501 71.4799 69.6459 73.5174 71.2084 70.7007C72.7793 67.8799 77.0709 60.6341 79.2917 59.2382C81.5084 57.8549 83.0834 58.6216 82.5501 61.4924C82.0293 64.3549 72.7376 71.2841 73.6459 72.7716C74.5417 74.2799 77.7292 71.0216 77.7292 71.0216C77.7292 71.0216 87.7084 62.0841 89.8751 64.4174C92.0417 66.7424 88.2292 68.6924 82.7917 71.9299C77.3418 75.1716 76.9251 76.0341 77.6876 77.2632C78.4668 78.4924 90.4792 68.5132 91.6042 72.7507C92.7292 76.9632 79.3542 78.1841 80.1751 81.1091C81.0084 84.0257 89.6042 75.5924 91.3626 78.8716C93.1251 82.1632 79.2292 86.0299 79.1126 86.0591C74.6251 87.2091 63.2168 89.6382 59.2376 83.8841Z" fill="#FFD21E"/>
</svg>
