<svg width="100" height="100" viewBox="0 0 100 100" fill="none" xmlns="http://www.w3.org/2000/svg">
<path d="M62.7129 10.3618V29.1819L83.8618 83.5005C83.8618 83.5005 90.3183 96.7665 71.8519 99.9991H29.7244C29.7244 99.9991 12.5126 98.2031 16.6389 84.5747L38.8641 29.1826V10.3618H62.7129Z" fill="#009688"/>
<path d="M63.1593 8.17343H37.7892C35.7344 8.17343 34.063 6.34549 34.063 4.08701C34.063 1.82709 35.7337 -0.000854492 37.7892 -0.000854492H63.1593C65.2236 -0.000854492 66.892 1.82709 66.892 4.08701C66.892 6.34549 65.2228 8.17343 63.1593 8.17343Z" fill="#004D40"/>
<path d="M56.4667 41.091C59.189 41.091 61.4091 43.751 61.4091 47.0452C61.4091 50.325 59.1876 52.9915 56.4667 52.9915C53.7378 52.9915 51.5243 50.325 51.5243 47.0452C51.5243 43.7496 53.7378 41.091 56.4667 41.091Z" fill="white"/>
<path d="M41.2942 56.537C43.5951 56.537 45.4603 54.2888 45.4603 51.5156C45.4603 48.7423 43.5951 46.4941 41.2942 46.4941C38.9933 46.4941 37.1281 48.7423 37.1281 51.5156C37.1281 54.2888 38.9933 56.537 41.2942 56.537Z" fill="white"/>
<path d="M64.5939 27.9345V18.9833C64.5939 18.9833 75.945 16.4805 81.618 29.6835C81.618 29.6835 72.7769 36.1248 64.5939 27.9345Z" fill="#004D40"/>
<path d="M36.7919 27.9345V18.9833C36.7919 18.9833 25.4394 16.4805 19.7693 29.6835C19.7693 29.6835 28.6017 36.1248 36.7919 27.9345Z" fill="#004D40"/>
<path d="M71.4185 64.9774C52.96 59.2515 37.4413 62.3254 29.8563 64.6491L22.2075 83.0597C18.764 94.0506 33.1425 95.4951 33.1425 95.4951H68.3279C83.7509 92.8895 78.3606 82.1972 78.3606 82.1972L71.4185 64.9774Z" fill="white"/>
<path d="M44.8167 71.818C44.8167 73.8032 42.1488 75.4181 38.8625 75.4181C35.5763 75.4181 32.9163 73.8025 32.9163 71.818C32.9163 69.8248 35.5763 68.2158 38.8625 68.2158C42.1502 68.2172 44.8167 69.8248 44.8167 71.818Z" fill="#004D40"/>
<path d="M65.9913 71.818C65.9913 73.8032 63.3233 75.4181 60.045 75.4181C56.7494 75.4181 54.0908 73.8025 54.0908 71.818C54.0908 69.8248 56.7494 68.2158 60.045 68.2158C63.3248 68.2172 65.9913 69.8248 65.9913 71.818Z" fill="#004D40"/>
</svg>
