<svg width="100" height="100" viewBox="0 0 100 100" fill="none" xmlns="http://www.w3.org/2000/svg">
<path fill-rule="evenodd" clip-rule="evenodd" d="M9.77386 68.6386C8.75652 67.0339 8.74115 64.9899 9.73424 63.3698L47.1259 2.37637C49.2057 -1.01606 54.2275 -0.719433 55.8935 2.89421L90.0526 76.9934C91.3198 79.7428 89.861 82.9776 86.961 83.8477L33.824 99.7888C31.686 100.43 29.3825 99.5706 28.1874 97.6854L9.77386 68.6386ZM51.4401 20.2103C51.8004 18.416 54.2589 18.1573 54.985 19.8372L78.5475 74.3596C78.9908 75.3861 78.4389 76.57 77.3673 76.8897L40.6538 87.8492C39.3043 88.2519 38.0116 87.0729 38.2889 85.6919L51.4401 20.2103Z" fill="white"/>
</svg>
