<svg width="100" height="100" viewBox="0 0 100 100" fill="none" xmlns="http://www.w3.org/2000/svg">
<path d="M75.5 31.7986L68.9 38.3987C79.7 49.1987 79.7 66.5987 68.9 77.1987C58.1 87.9987 40.7 87.9987 30.1 77.1987C19.3 66.3987 19.3 48.9987 30.1 38.3987L47.2 21.2986L49.6 18.8987V5.99866L23.8 31.7986C9.4 46.1986 9.4 69.3986 23.8 83.7986C38.2 98.1986 61.4 98.1986 75.5 83.7986C89.9 69.2986 89.9 46.1986 75.5 31.7986Z" fill="white"/>
<path d="M62.5998 30.1983C65.2508 30.1983 67.3998 28.0493 67.3998 25.3983C67.3998 22.7473 65.2508 20.5983 62.5998 20.5983C59.9488 20.5983 57.7998 22.7473 57.7998 25.3983C57.7998 28.0493 59.9488 30.1983 62.5998 30.1983Z" fill="white"/>
</svg>
