<svg width="100" height="100" viewBox="0 0 100 100" fill="none" xmlns="http://www.w3.org/2000/svg">
<path d="M85.7856 99.9992L67.8297 82.1449L67.5553 82.1841V81.9883L29.3696 44.2829L38.7789 35.1992L33.251 3.48444L7.02286 35.9823C2.55349 40.485 1.73019 47.8068 4.945 53.21L21.3327 80.383C23.8418 84.5725 28.3895 87.0783 33.2902 87.0391L41.4057 86.9607L85.7856 99.9992Z" fill="#18B6F6"/>
<path d="M95.5854 35.3556L91.9785 28.6995L90.0966 25.2931L89.3518 23.9618L89.2734 24.0402L79.3936 6.92984C76.9238 2.6229 72.2977 -0.0395856 67.2794 -0.000428436L58.6151 0.234473L32.7789 0.312788C27.8784 0.351945 23.4091 2.93611 20.9391 7.1256L5.2179 38.2921L33.3279 3.40596L70.1806 43.8911L63.6332 50.5082L67.5538 82.1839L67.593 82.1055V82.1839H67.5146L67.593 82.2621L70.651 85.2379L85.5097 99.764C86.137 100.351 87.1564 99.6466 86.725 98.9026L77.5512 80.8526L93.5468 51.2914L94.0563 50.704C94.2523 50.469 94.4483 50.2343 94.6053 49.9993C97.7417 45.7314 98.1729 40.015 95.5854 35.3556Z" fill="#AC7EF4"/>
<path d="M70.2977 43.7347L33.3274 3.44522L38.5809 35.0034L29.1716 44.1263L67.4749 82.1449L64.0249 50.5866L70.2977 43.7347Z" fill="white"/>
</svg>
