<svg width="100" height="100" viewBox="0 0 100 100" fill="none" xmlns="http://www.w3.org/2000/svg">
<path d="M100 22.7151C100 22.7151 66.6666 -1.81319 40.8805 3.84719L38.9937 4.47612C35.2201 5.73399 32.0754 7.62078 30.1887 10.1365L28.9308 12.0233L19.4968 28.3755L35.849 31.5202C42.7673 35.9227 51.5723 37.8095 59.7484 35.9227L88.6792 41.583L100 22.7151Z" fill="#76B3E1"/>
<path opacity="0.3" d="M100 22.7151C100 22.7151 66.6666 -1.81319 40.8805 3.84719L38.9937 4.47612C35.2201 5.73399 32.0754 7.62078 30.1887 10.1365L28.9308 12.0233L19.4968 28.3755L35.849 31.5202C42.7673 35.9227 51.5723 37.8095 59.7484 35.9227L88.6792 41.583L100 22.7151Z" fill="url(#paint0_linear_790_7022)"/>
<path d="M30.1886 22.7151L27.6729 23.344C16.981 26.4887 13.8364 36.5516 19.4968 45.3566C25.7861 53.5327 38.9936 57.9352 49.6854 54.7906L88.6792 41.583C88.6792 41.583 55.3458 17.0547 30.1886 22.7151Z" fill="#518AC8"/>
<path opacity="0.3" d="M30.1886 22.7151L27.6729 23.344C16.981 26.4887 13.8364 36.5516 19.4968 45.3566C25.7861 53.5327 38.9936 57.9352 49.6854 54.7906L88.6792 41.583C88.6792 41.583 55.3458 17.0547 30.1886 22.7151Z" fill="url(#paint1_linear_790_7022)"/>
<path d="M81.761 51.017C78.2398 46.618 73.4857 43.3701 68.1075 41.6894C62.7293 40.0087 56.9718 39.9717 51.5723 41.583L12.5786 54.1616L0 76.1742L70.4403 88.1239L83.0189 65.4824C85.5346 61.0799 84.9057 56.0484 81.761 51.017Z" fill="url(#paint2_linear_790_7022)"/>
<path d="M69.1824 73.0296C65.6612 68.6306 60.9071 65.3827 55.5289 63.702C50.1506 62.0213 44.3931 61.9843 38.9937 63.5956L0 76.1742C0 76.1742 33.3333 101.331 59.1195 95.0422L61.0063 94.4132C71.6981 91.2686 75.4717 81.2057 69.1824 73.0296Z" fill="url(#paint3_linear_790_7022)"/>
<defs>
<linearGradient id="paint0_linear_790_7022" x1="14.7798" y1="2.58933" x2="93.0817" y2="40.6397" gradientUnits="userSpaceOnUse">
<stop offset="0.1" stop-color="#76B3E1"/>
<stop offset="0.3" stop-color="#DCF2FD"/>
<stop offset="1" stop-color="#76B3E1"/>
</linearGradient>
<linearGradient id="paint1_linear_790_7022" x1="57.7358" y1="21.2057" x2="44.0251" y2="66.8661" gradientUnits="userSpaceOnUse">
<stop stop-color="#76B3E1"/>
<stop offset="0.5" stop-color="#4377BB"/>
<stop offset="1" stop-color="#1F3B77"/>
</linearGradient>
<linearGradient id="paint2_linear_790_7022" x1="9.05661" y1="41.0799" x2="88.239" y2="94.9164" gradientUnits="userSpaceOnUse">
<stop stop-color="#315AA9"/>
<stop offset="0.5" stop-color="#518AC8"/>
<stop offset="1" stop-color="#315AA9"/>
</linearGradient>
<linearGradient id="paint3_linear_790_7022" x1="44.7799" y1="47.5579" x2="12.8302" y2="164.728" gradientUnits="userSpaceOnUse">
<stop stop-color="#4377BB"/>
<stop offset="0.5" stop-color="#1A336B"/>
<stop offset="1" stop-color="#1A336B"/>
</linearGradient>
</defs>
</svg>
