<svg width="100" height="100" viewBox="0 0 100 100" fill="none" xmlns="http://www.w3.org/2000/svg">
<path d="M91.0588 5.74606C89.6221 9.23879 87.7643 12.3352 85.7083 15.1096C76.642 5.86992 63.9592 -0.000854492 49.9635 -0.000854492C22.4675 -0.000854492 0 22.3427 0 49.9378C0 64.3547 6.16802 77.3348 15.9526 86.5001L17.8105 88.1598C26.4556 95.4673 37.7017 99.9013 49.9387 99.9013C76.1961 99.9013 97.8214 79.4155 99.6792 53.5544C101.165 40.9954 97.3507 24.9189 91.0588 5.74606ZM23.1858 86.9212C21.7491 88.779 19.0738 88.9772 17.216 87.5405C15.3581 86.1038 15.16 83.4285 16.5967 81.5706C18.0334 79.7128 20.7087 79.5146 22.5665 80.9514C24.3253 82.3881 24.6225 85.0634 23.1858 86.9212ZM90.7616 71.9842C78.4999 88.3579 52.1433 82.8092 35.3485 83.6266C35.3485 83.6266 32.3512 83.8248 29.3786 84.2459C29.3786 84.2459 30.5181 83.7257 31.9548 83.2055C43.7954 79.0935 49.369 78.2513 56.5774 74.5604C70.0777 67.6492 83.5532 52.514 86.2532 36.8587C81.1008 51.8948 65.4454 64.8749 51.2268 70.1264C41.4422 73.7429 23.8299 77.2357 23.8299 77.2357L23.1115 76.8146C11.1718 70.9438 10.7507 44.9836 32.5989 36.6357C42.1853 32.92 51.2516 34.976 61.6555 32.5237C72.6786 29.9475 85.4606 21.6987 90.5882 10.8985C96.3103 28.3126 103.321 55.2884 90.7616 71.9842Z" fill="#6CB52D"/>
<path d="M23.1858 86.9212C21.7491 88.779 19.0738 88.9772 17.216 87.5405C15.3581 86.1038 15.16 83.4285 16.5967 81.5706C18.0334 79.7128 20.7087 79.5146 22.5666 80.9513C24.3253 82.3881 24.6226 85.0634 23.1858 86.9212Z" fill="#6CB52D"/>
</svg>
