<svg width="100" height="100" viewBox="0 0 100 100" fill="none" xmlns="http://www.w3.org/2000/svg">
<path d="M50.0768 56.4524L32.6043 47.2165L2.27477 31.1866C2.24686 31.1591 2.19171 31.1591 2.16381 31.1591C1.0565 30.6328 -0.0787181 31.7405 0.336564 32.8478L15.7907 72.2637L15.7934 72.272C15.81 72.3109 15.8239 72.3494 15.8406 72.3883C16.4748 73.8584 17.8588 74.7664 19.3651 75.1235C19.4924 75.1514 19.5834 75.1763 19.7362 75.2069C19.8887 75.2408 20.1017 75.287 20.2844 75.3009C20.3143 75.3036 20.3422 75.3036 20.3728 75.3062H20.395C20.417 75.3092 20.4392 75.3092 20.4615 75.3119H20.4917C20.5113 75.3146 20.5332 75.3146 20.5528 75.3146H20.5887C20.611 75.3175 20.6329 75.3175 20.6552 75.3175C40.2272 77.4514 59.9732 77.4514 79.5452 75.3175C79.7804 75.3175 80.0103 75.3062 80.2316 75.2843L80.4422 75.2594C80.4505 75.2564 80.4615 75.2564 80.4698 75.2538C80.517 75.2481 80.5638 75.2398 80.611 75.2315C80.6801 75.2232 80.7495 75.2096 80.8186 75.1956C80.9572 75.1651 81.02 75.1431 81.208 75.0783C81.3957 75.0139 81.7077 74.9009 81.9027 74.8069C82.098 74.7129 82.2332 74.6225 82.3967 74.5202C82.5985 74.3936 82.7951 74.2588 82.9861 74.1162C83.0701 74.0518 83.1276 74.0106 83.1884 73.9524L83.1552 73.9332L50.0768 56.4524Z" fill="#FF4B4B"/>
<path d="M97.9289 31.187H97.9013L67.5604 47.2169L84.4265 72.3361L99.8418 32.8481V32.7926C100.23 31.6298 99.0392 30.578 97.9289 31.187Z" fill="#7D353B"/>
<path d="M51.6937 23.5651C50.9183 22.4325 49.2296 22.4325 48.4821 23.5651L32.6044 47.2169L50.0768 56.4528L83.1888 73.9524C83.3967 73.7488 83.5635 73.5504 83.7396 73.3408C83.9974 73.0265 84.2271 72.6902 84.4263 72.3358L67.5602 47.2169L51.6937 23.5651Z" fill="#BD4043"/>
</svg>
