<svg width="100" height="100" viewBox="0 0 100 100" fill="none" xmlns="http://www.w3.org/2000/svg">
<path d="M57.8941 98.3377C55.3395 101.555 50.1596 99.7922 50.0981 95.6844L49.198 35.6023H89.5971C96.9144 35.6023 100.995 44.0539 96.4454 49.7847L57.8941 98.3377Z" fill="url(#paint0_linear_790_7068)"/>
<path d="M57.8941 98.3377C55.3395 101.555 50.1596 99.7922 50.0981 95.6844L49.198 35.6023H89.5971C96.9144 35.6023 100.995 44.0539 96.4454 49.7847L57.8941 98.3377Z" fill="url(#paint1_linear_790_7068)" fill-opacity="0.2"/>
<path d="M41.464 1.66073C44.0187 -1.55675 49.1986 0.206196 49.2601 4.31409L49.6546 64.396H9.76106C2.44348 64.396 -1.63767 55.9444 2.91262 50.2136L41.464 1.66073Z" fill="#3ECF8E"/>
<defs>
<linearGradient id="paint0_linear_790_7068" x1="49.198" y1="48.924" x2="85.1033" y2="63.9827" gradientUnits="userSpaceOnUse">
<stop stop-color="#249361"/>
<stop offset="1" stop-color="#3ECF8E"/>
</linearGradient>
<linearGradient id="paint1_linear_790_7068" x1="33.2795" y1="27.1287" x2="49.6542" y2="57.9532" gradientUnits="userSpaceOnUse">
<stop/>
<stop offset="1" stop-opacity="0"/>
</linearGradient>
</defs>
</svg>
