<svg width="100" height="100" viewBox="0 0 100 100" fill="none" xmlns="http://www.w3.org/2000/svg">
<path d="M93.2204 31.4921L77.4059 14.9836H23.3401L6.74585 31.4921L48.4547 81.7144L93.2204 31.4921Z" fill="#142641"/>
<path fill-rule="evenodd" clip-rule="evenodd" d="M56.1395 12.8364L53.2083 14.5293L52.4944 13.293L50.7875 14.2781L49.954 12.8364L47.3618 14.3329L46.4984 12.8364L46.1903 13.0139L45.2462 11.3788L44.8085 11.631L44.0049 10.2392L5.50439 32.4665L6.74567 34.6161L7.18236 34.3638L7.98695 35.7556L8.29403 35.5782L9.23919 37.2143L9.61606 36.9959L10.2163 38.0358L10.3608 37.9521L10.9301 38.9381L12.1714 41.0877L57.3808 14.986L56.1395 12.8364ZM72.4755 56.4882H55.6579V58.1522H34.4031L88.7158 26.7941L82.6759 16.3325L81.4635 17.0324L80.631 15.5907L67.0468 23.4342L67.8793 24.8749L22.6001 51.0165L28.641 61.4791L28.8833 61.3392V64.561H33.293V69.8721H64.7227V64.561H69.4556V58.2928H72.4755V56.4882Z" fill="#274D82"/>
<path fill-rule="evenodd" clip-rule="evenodd" d="M79.5334 9.99915H21.2822L0 31.1726L48.318 89.3611L52.1735 85.036L100 31.371L79.5334 9.99915ZM77.4058 14.9842L93.2203 31.4927L48.4546 81.715L6.74576 31.4927L23.34 14.9842H77.4058Z" fill="#3068B7"/>
</svg>
