<svg width="100" height="100" viewBox="0 0 100 100" fill="none" xmlns="http://www.w3.org/2000/svg">
<path d="M9.37494 48.0636C9.37494 33.8678 17.0708 20.7553 29.5583 13.6553C35.7123 10.1669 42.6655 8.33325 49.7395 8.33325C56.8135 8.33325 63.7667 10.1669 69.9208 13.6553C82.4083 20.7553 90.1041 33.8678 90.1041 48.0636C90.1041 70.0053 72.0333 87.7928 49.7416 87.7928C27.4499 87.7928 9.37494 70.0011 9.37494 48.0636Z" fill="#FF9D0B"/>
<path d="M49.7416 83.693C69.7291 83.693 85.9375 67.7388 85.9375 48.0638C85.9375 28.3888 69.7291 12.4388 49.7416 12.4388C29.75 12.4388 13.5416 28.3888 13.5416 48.0638C13.5416 67.7388 29.75 83.6888 49.7416 83.6888V83.693Z" fill="#FFD21E"/>
<path d="M49.4794 62.9724C59.7169 62.9724 63.021 53.9891 63.021 49.3766C63.021 46.9766 61.3835 47.7349 58.7585 49.0057C56.3335 50.1849 53.071 51.8182 49.4919 51.8182C42.0002 51.8182 35.9502 44.7641 35.9502 49.3766C35.9502 53.9891 39.2419 62.9724 49.4919 62.9724H49.4794Z" fill="#FF323D"/>
<path d="M61.5001 38.3775C62.8334 38.8275 63.3543 41.515 64.6959 40.815C66.5584 39.8441 67.6418 37.865 67.4418 35.7983C67.338 34.7824 66.9343 33.8204 66.2821 33.0346C65.6299 32.2488 64.7587 31.6749 63.7793 31.3858C62.7962 31.0883 61.7475 31.0852 60.7626 31.377C59.7778 31.6687 58.9 32.2425 58.2376 33.0275C56.8959 34.6275 56.6668 36.8608 57.6543 38.6941C58.2918 39.8733 60.3126 37.9566 61.5084 38.365L61.5001 38.3775ZM36.9709 38.3775C35.6376 38.8275 35.1043 41.515 33.7709 40.815C32.8658 40.3475 32.1211 39.62 31.6326 38.7261C31.144 37.8321 30.9339 36.8126 31.0293 35.7983C31.2293 33.7358 32.6751 31.9941 34.6876 31.3858C35.6707 31.0883 36.7194 31.0852 37.7042 31.377C38.689 31.6687 39.5668 32.2425 40.2293 33.0275C41.5709 34.6275 41.8001 36.8608 40.8126 38.6941C40.1793 39.8733 38.1459 37.9566 36.9584 38.365L36.9709 38.3775ZM41.6376 60.6275C42.1928 59.522 42.9694 58.5424 43.9192 57.7497C44.8689 56.9569 45.9715 56.3679 47.1584 56.0191C47.4501 55.9358 47.7584 56.2691 48.0709 56.7316L48.8709 58.0066C49.1584 58.4233 49.4501 58.7358 49.7418 58.7358C50.0501 58.7358 50.3668 58.4275 50.6709 58.0191L51.5251 56.7608C51.8584 56.3025 52.1793 55.9775 52.5001 56.0733C54.7376 56.7733 56.6084 58.3066 57.7084 60.3483C61.5918 57.3316 63.0209 52.4108 63.0209 49.3775C63.0209 47.2608 61.7459 47.6025 59.6459 48.5858L57.0793 49.8191C54.9126 50.8191 52.2959 51.8191 49.4793 51.8191C46.6626 51.8191 44.0543 50.8191 41.8834 49.8191L39.4293 48.64C37.2626 47.6066 35.9376 47.215 35.9376 49.3775C35.9376 52.3066 37.2709 57.0066 40.8834 60.0441L41.6334 60.6275H41.6376Z" fill="#3A3B45"/>
<path d="M74.2168 43.1941C74.6582 43.198 75.096 43.1148 75.5052 42.9493C75.9144 42.7838 76.287 42.5393 76.6016 42.2297C76.9162 41.9201 77.1667 41.5515 77.3388 41.1451C77.5108 40.7386 77.6011 40.3022 77.6043 39.8608C77.6043 38.0233 76.0877 36.5275 74.2168 36.5275C73.7758 36.5242 73.3385 36.6078 72.9297 36.7735C72.521 36.9393 72.149 37.1839 71.8348 37.4934C71.5206 37.8029 71.2705 38.1713 71.0987 38.5775C70.9269 38.9837 70.8368 39.4198 70.8335 39.8608C70.8335 41.7025 72.3502 43.1941 74.2168 43.1941ZM25.7835 43.1941C26.2245 43.1974 26.6619 43.1138 27.0706 42.9481C27.4793 42.7824 27.8514 42.5377 28.1656 42.2282C28.4797 41.9187 28.7299 41.5503 28.9017 41.1441C29.0735 40.7379 29.1636 40.3018 29.1668 39.8608C29.1668 38.0233 27.6502 36.5275 25.7835 36.5275C25.3421 36.5236 24.9043 36.6068 24.4951 36.7723C24.0859 36.9378 23.7134 37.1823 23.3988 37.4919C23.0841 37.8015 22.8336 38.1701 22.6616 38.5765C22.4895 38.983 22.3993 39.4194 22.396 39.8608C22.396 41.7025 23.9127 43.1941 25.7835 43.1941ZM18.8127 54.4733C17.1252 54.4733 15.6252 55.1483 14.5752 56.39C13.6795 57.4748 13.189 58.8373 13.1877 60.2441C12.5313 60.0497 11.8514 59.9459 11.1668 59.9358C9.55433 59.9358 8.096 60.5441 7.06267 61.64C6.14458 62.5723 5.56402 63.7845 5.41306 65.0843C5.2621 66.384 5.54937 67.697 6.22933 68.815C5.31128 69.5513 4.65758 70.5662 4.36683 71.7066C4.11683 72.6316 3.86683 74.5816 5.20017 76.565C4.69988 77.3183 4.4015 78.1876 4.33365 79.0894C4.2658 79.9911 4.43074 80.8952 4.81266 81.715C5.80433 83.9358 8.18767 85.7066 12.6877 87.5691L13.6877 87.9691C16.8877 89.2191 19.8252 90.0191 19.846 90.0275C23.5543 91.04 27.3793 91.59 31.2293 91.6691C37.3335 91.6691 41.7002 89.8233 44.2085 86.1941C48.0835 80.6025 47.7168 75.465 43.0668 70.515L42.4377 69.8733C39.5543 67.0233 37.6252 62.8316 37.2293 61.9066C36.4168 59.1775 34.271 56.1441 30.721 56.1441C28.8043 56.1733 27.0168 57.115 25.9293 58.665C24.8877 57.3733 23.8668 56.3608 22.9502 55.7733C21.7218 54.9571 20.2871 54.5063 18.8127 54.4733ZM81.1877 54.4733C82.8752 54.4733 84.3835 55.1483 85.4252 56.39C86.3252 57.4816 86.8127 58.84 86.8127 60.2441C87.471 60.0483 88.1543 59.9483 88.8418 59.9358C90.4585 59.9358 91.9168 60.5441 92.946 61.64C93.8641 62.5723 94.4447 63.7845 94.5956 65.0843C94.7466 66.384 94.4593 67.697 93.7793 68.815C94.696 69.5566 95.3502 70.5733 95.6335 71.7066C95.8835 72.6316 96.1335 74.5816 94.8002 76.565C95.8168 78.1066 95.9627 80.0483 95.1877 81.715C94.196 83.9358 91.8127 85.7066 87.3168 87.5691L86.321 87.9691C83.1127 89.2191 80.1752 90.0191 80.1543 90.0275C76.446 91.04 72.621 91.59 68.771 91.6691C62.6668 91.6691 58.3002 89.8233 55.7918 86.1941C51.9168 80.6025 52.2835 75.465 56.9335 70.515L57.5627 69.8733C60.4585 67.0233 62.3835 62.8316 62.7793 61.9066C63.5918 59.1775 65.7293 56.1441 69.2793 56.1441C71.196 56.1733 72.9835 57.115 74.071 58.665C75.1127 57.3733 76.1335 56.3608 77.0627 55.7733C78.0793 55.0983 79.2418 54.6691 80.4543 54.5233L81.1877 54.4733Z" fill="#FF9D0B"/>
<path d="M40.7709 83.8841C43.6376 79.7425 43.4292 76.6341 39.5001 72.7716C35.5626 68.905 33.2709 63.2383 33.2709 63.2383C33.2709 63.2383 32.4168 59.955 30.4709 60.2633C28.5209 60.5716 27.0959 65.4716 31.1793 68.4758C35.2501 71.48 30.3668 73.5175 28.7917 70.7008C27.2292 67.88 22.9376 60.6341 20.7084 59.2383C18.4918 57.855 16.9293 58.6216 17.4501 61.4925C17.9709 64.355 27.2709 71.2841 26.3668 72.7716C25.4584 74.28 22.2709 71.0216 22.2709 71.0216C22.2709 71.0216 12.3043 62.0841 10.1251 64.4175C7.95842 66.7425 11.7834 68.6925 17.2084 71.93C22.6584 75.1716 23.0834 76.0341 22.3126 77.2633C21.5334 78.4924 9.52092 68.5133 8.39592 72.7508C7.27092 76.9633 20.6584 78.1841 19.8334 81.1091C19.0001 84.0258 10.3959 75.5925 8.64592 78.8716C6.87509 82.1633 20.7834 86.0299 20.8959 86.0591C25.3751 87.2091 36.7834 89.6383 40.7709 83.8841ZM59.2376 83.8841C56.3751 79.7425 56.5709 76.6341 60.5084 72.7716C64.4376 68.905 66.7292 63.2383 66.7292 63.2383C66.7292 63.2383 67.5834 59.955 69.5418 60.2633C71.4793 60.5716 72.9043 65.4716 68.8334 68.4758C64.7501 71.48 69.6459 73.5175 71.2084 70.7008C72.7793 67.88 77.0709 60.6341 79.2917 59.2383C81.5084 57.855 83.0834 58.6216 82.5501 61.4925C82.0293 64.355 72.7376 71.2841 73.6459 72.7716C74.5417 74.28 77.7292 71.0216 77.7292 71.0216C77.7292 71.0216 87.7084 62.0841 89.8751 64.4175C92.0417 66.7425 88.2292 68.6925 82.7917 71.93C77.3418 75.1716 76.9251 76.0341 77.6876 77.2633C78.4668 78.4924 90.4792 68.5133 91.6042 72.7508C92.7292 76.9633 79.3542 78.1841 80.1751 81.1091C81.0084 84.0258 89.6042 75.5925 91.3626 78.8716C93.1251 82.1633 79.2292 86.0299 79.1126 86.0591C74.6251 87.2091 63.2168 89.6383 59.2376 83.8841Z" fill="#FFD21E"/>
</svg>
