<svg width="100" height="100" viewBox="0 0 100 100" fill="none" xmlns="http://www.w3.org/2000/svg">
<g clip-path="url(#clip0_815_409)">
<path d="M8.03321 4.314L63.4865 0.227337C70.2965 -0.355996 72.0465 0.0373373 76.3265 3.144L94.0299 15.5873C96.9532 17.7273 97.9265 18.3107 97.9265 20.6407V88.884C97.9265 93.1607 96.3665 95.6907 90.9199 96.0773L26.5232 99.9673C22.4299 100.161 20.4865 99.5773 18.3432 96.854L5.30988 79.9407C2.96654 76.8273 1.99988 74.4973 1.99988 71.774V11.114C1.99988 7.61734 3.55988 4.70067 8.03321 4.314Z" fill="white"/>
<path fill-rule="evenodd" clip-rule="evenodd" d="M63.4899 0.227337L8.02654 4.314C3.55988 4.70067 1.99988 7.61734 1.99988 11.114V71.774C1.99988 74.4973 2.96988 76.8273 5.30654 79.9407L18.3432 96.854C20.4865 99.5773 22.4299 100.161 26.5199 99.9673L90.9232 96.0773C96.3699 95.6907 97.9299 93.1607 97.9299 88.884V20.6407C97.9299 18.4307 97.0532 17.794 94.4732 15.9073L94.0332 15.5873L76.3332 3.144C72.0499 0.0373373 70.2999 -0.355996 63.4865 0.227337H63.4899ZM27.9765 19.524C22.7199 19.8773 21.5232 19.9573 18.5399 17.534L10.9499 11.5073C10.1732 10.7273 10.5632 9.754 12.5065 9.56067L65.8232 5.674C70.2965 5.284 72.6332 6.84067 74.3832 8.20067L83.5299 14.8107C83.9199 15.0073 84.8899 16.1707 83.7232 16.1707L28.6565 19.4773L27.9765 19.524ZM21.8465 88.3007V30.3673C21.8465 27.8373 22.6265 26.6707 24.9599 26.474L88.1965 22.7807C90.3399 22.5873 91.3132 23.9473 91.3132 26.474V84.0207C91.3132 86.5507 90.9232 88.6907 87.4199 88.884L26.9065 92.384C23.4065 92.5773 21.8465 91.414 21.8465 88.3007ZM81.5865 33.474C81.9732 35.224 81.5865 36.974 79.8299 37.174L76.9165 37.7507V80.524C74.3832 81.884 72.0499 82.6607 70.1032 82.6607C66.9899 82.6607 66.2099 81.6873 63.8765 78.774L44.8065 48.834V77.8007L50.8399 79.164C50.8399 79.164 50.8399 82.664 45.9732 82.664L32.5499 83.4407C32.1599 82.6607 32.5499 80.7173 33.9099 80.3307L37.4132 79.3607V41.0607L32.5499 40.6673C32.1599 38.9173 33.1299 36.3907 35.8565 36.1973L50.2565 35.224L70.1032 65.5573V38.724L65.0432 38.144C64.6565 36.0007 66.2099 34.4473 68.1565 34.254L81.5865 33.474Z" fill="black"/>
</g>
<defs>
<clipPath id="clip0_815_409">
<rect width="96.6667" height="100" fill="white" transform="translate(1.99988)"/>
</clipPath>
</defs>
</svg>
