<svg width="100" height="100" viewBox="0 0 100 100" fill="none" xmlns="http://www.w3.org/2000/svg">
<path d="M50.0768 56.4525L32.6043 47.2166L2.27477 31.1867C2.24686 31.1591 2.19171 31.1591 2.16381 31.1591C1.0565 30.6329 -0.0787181 31.7405 0.336564 32.8478L15.7907 72.2638L15.7934 72.2721C15.81 72.3109 15.8239 72.3495 15.8406 72.3883C16.4748 73.8584 17.8588 74.7664 19.3651 75.1236C19.4924 75.1515 19.5834 75.1764 19.7362 75.2069C19.8887 75.2408 20.1017 75.287 20.2844 75.301C20.3143 75.3036 20.3422 75.3036 20.3728 75.3063H20.395C20.417 75.3093 20.4392 75.3093 20.4615 75.3119H20.4917C20.5113 75.3146 20.5332 75.3146 20.5528 75.3146H20.5887C20.611 75.3176 20.6329 75.3176 20.6552 75.3176C40.2272 77.4515 59.9732 77.4515 79.5452 75.3176C79.7804 75.3176 80.0103 75.3063 80.2316 75.2844L80.4422 75.2594C80.4505 75.2564 80.4615 75.2564 80.4698 75.2538C80.517 75.2481 80.5638 75.2398 80.611 75.2315C80.6801 75.2232 80.7495 75.2096 80.8186 75.1956C80.9572 75.1651 81.02 75.1432 81.208 75.0784C81.3957 75.0139 81.7077 74.901 81.9027 74.8069C82.098 74.7129 82.2332 74.6226 82.3967 74.5202C82.5985 74.3936 82.7951 74.2588 82.9861 74.1162C83.0701 74.0518 83.1276 74.0106 83.1884 73.9525L83.1552 73.9332L50.0768 56.4525Z" fill="#FF4B4B"/>
<path d="M97.9289 31.1871H97.9013L67.5604 47.217L84.4265 72.3362L99.8418 32.8482V32.7927C100.23 31.6299 99.0392 30.5781 97.9289 31.1871Z" fill="#7D353B"/>
<path d="M51.6937 23.565C50.9183 22.4324 49.2296 22.4324 48.4821 23.565L32.6044 47.2168L50.0768 56.4527L83.1888 73.9524C83.3967 73.7487 83.5635 73.5504 83.7396 73.3407C83.9974 73.0264 84.2271 72.6901 84.4263 72.3358L67.5602 47.2168L51.6937 23.565Z" fill="#BD4043"/>
</svg>
